<svg width="30" height="30" viewBox="0 0 30 30" fill="none" xmlns="http://www.w3.org/2000/svg">
<circle cx="15" cy="15" r="15" fill="#2B2B2B"/>
<path d="M8 5.1676C10.3425 4.3892 12.7686 4 15.2784 4C17.7882 4 19.8693 4.52235 21.5216 5.56704C23.1739 6.61173 24 8.2095 24 10.3603C24 12.5112 23.2163 15.0077 21.6686 16.4825C20.1209 17.9369 17.851 18.2597 16.5438 17.9984C15.2366 17.737 13.9294 16.7181 13.9294 14.6927C13.9294 12.6674 15.5163 11.6816 15.8431 11.6816C15.8431 12.0016 15.4404 13.433 16.217 14.1576C16.9936 14.8822 17.9074 14.8862 18.7843 14.2421C20.0915 13.2819 19.8588 12.2244 19.8588 10.852C19.8588 9.45903 19.4614 8.42458 18.6667 7.7486C17.8719 7.07263 16.7634 6.73464 15.3412 6.73464C14.6092 6.73464 13.7203 6.85754 12.6745 7.10335C12.5072 9.62291 12.4235 11.8557 12.4235 13.8017C12.4235 19.2505 12.6431 23.1937 13.0824 25.6313C12.4131 25.8771 11.702 26 10.949 26C10.1961 26 9.53725 25.7644 8.97255 25.2933C8.42876 24.8222 8.15686 24.1974 8.15686 23.419C8.15686 22.6406 8.26144 21.2886 8.47059 19.3631C8.67974 17.4171 8.78431 15.8603 8.78431 14.6927C8.78431 11.1285 8.52288 7.95344 8 5.1676Z" fill="#515151"/>
</svg>
