<svg width="61" height="51" viewBox="0 0 61 51" fill="none" xmlns="http://www.w3.org/2000/svg">
<path d="M18.0135 44.7754C16.0823 44.7754 14.6601 44.2174 13.7472 43.1015C12.8342 41.9682 12.3777 40.399 12.3777 38.3938C12.3777 36.3713 12.9834 34.619 14.1949 33.1369C15.4063 31.6549 16.9601 30.9138 18.8563 30.9138C22.7539 30.9138 24.7028 33.0933 24.7028 37.4523C24.7028 39.4923 24.0707 41.2272 22.8066 42.6569C21.5425 44.0692 19.9448 44.7754 18.0135 44.7754ZM16.1174 33.7908C15.8013 34.802 15.6433 35.8133 15.6433 36.8246C15.6433 37.8359 15.6784 38.6205 15.7487 39.1785C15.8189 39.7364 15.9506 40.2944 16.1437 40.8523C16.5475 41.9856 17.3376 42.5523 18.5139 42.5523C19.7078 42.5523 20.4891 42.2385 20.8578 41.6108C21.244 40.9831 21.4372 40.0154 21.4372 38.7077C21.4372 34.9938 20.5505 33.1369 18.7773 33.1369C17.759 33.1369 16.8723 33.3549 16.1174 33.7908Z" fill="white"/>
<path d="M29.1179 39.7015C29.0652 39.9456 29.0389 40.1462 29.0389 40.3031C29.0389 41.0179 29.2496 41.5672 29.6709 41.9508C30.1099 42.3344 30.6893 42.5262 31.4091 42.5262C32.1465 42.5262 32.7522 42.3954 33.2262 42.1338C33.7178 41.8549 33.9636 41.4451 33.9636 40.9046C33.9636 40.3641 33.7003 39.9369 33.1736 39.6231C32.6644 39.2918 32.0411 39.0303 31.3037 38.8385C30.5839 38.6467 29.8553 38.4374 29.1179 38.2108C28.3805 37.9667 27.7484 37.5918 27.2217 37.0862C26.7126 36.5805 26.458 35.9441 26.458 35.1769C26.458 33.9738 27.0988 32.9626 28.3805 32.1431C29.6622 31.3236 31.0053 30.9138 32.4098 30.9138C33.9549 30.9138 35.1312 31.2277 35.9388 31.8554C36.4129 32.2215 36.6499 32.7097 36.6499 33.32C36.6499 33.9128 36.4129 34.401 35.9388 34.7846C35.4823 35.1508 34.9205 35.3338 34.2533 35.3338C34.1129 35.3338 33.9373 35.3164 33.7266 35.2815C33.7793 35.0549 33.8056 34.8544 33.8056 34.68C33.8056 34.1744 33.6125 33.7908 33.2262 33.5292C32.84 33.2677 32.3133 33.1369 31.6461 33.1369C30.9965 33.1369 30.3996 33.2677 29.8553 33.5292C29.6446 33.8082 29.5393 34.1656 29.5393 34.6015C29.5393 35.0374 29.7938 35.3949 30.303 35.6738C30.8122 35.9354 31.4266 36.1708 32.1465 36.38C32.8839 36.5718 33.6213 36.7985 34.3587 37.06C35.0961 37.3041 35.7193 37.6964 36.2285 38.2369C36.7377 38.76 36.9922 39.4226 36.9922 40.2246C36.9922 41.5323 36.3338 42.622 35.0171 43.4938C33.7178 44.3482 32.3747 44.7754 30.9877 44.7754C29.6007 44.7754 28.4507 44.5313 27.5378 44.0431C26.6424 43.5374 26.1946 42.779 26.1946 41.7677C26.1946 41.14 26.4229 40.6344 26.8794 40.2508C27.3534 39.8497 27.924 39.6492 28.5912 39.6492C28.7316 39.6492 28.9072 39.6667 29.1179 39.7015Z" fill="white"/>
<path d="M39.7859 27.3831C40.3477 27.1041 40.9183 26.9646 41.4977 26.9646C42.0771 26.9646 42.5423 27.1477 42.8935 27.5138C43.2622 27.88 43.4465 28.4205 43.4465 29.1354C43.4465 29.8503 43.4026 30.661 43.3148 31.5677C44.6316 31.5677 45.8869 31.3846 47.0808 31.0185C47.2915 31.3672 47.3969 31.7769 47.3969 32.2477C47.3969 32.701 47.1862 33.0759 46.7648 33.3723C46.361 33.6513 45.9484 33.7908 45.527 33.7908C45.1057 33.7908 44.6316 33.7385 44.1049 33.6338C43.5782 33.5292 43.2358 33.4682 43.0778 33.4508C43.0603 33.6077 43.0076 33.9215 42.9198 34.3923C42.8496 34.8631 42.7881 35.2728 42.7355 35.6215C42.595 36.5805 42.5248 37.6092 42.5248 38.7077C42.5248 41.0964 43.3061 42.2908 44.8686 42.2908C45.448 42.2908 46.1152 42.0903 46.8701 41.6892C47.0984 42.0205 47.2125 42.4477 47.2125 42.9708C47.2125 43.4938 46.9228 43.9036 46.3434 44.2C45.7816 44.479 45.1057 44.6185 44.3156 44.6185C41.2255 44.6185 39.6805 42.8749 39.6805 39.3877C39.6805 38.882 39.7507 37.9667 39.8912 36.6415C40.0492 35.3164 40.1282 34.2441 40.1282 33.4246C39.2855 33.4769 38.6095 33.6251 38.1004 33.8692C37.8897 33.5554 37.7844 33.1979 37.7844 32.7969C37.7844 32.3785 37.9336 32.0385 38.2321 31.7769C38.5305 31.4979 38.8992 31.3585 39.3382 31.3585C39.7771 31.3585 40.0668 31.3672 40.2072 31.3846C40.2248 31.2451 40.2336 31.0621 40.2336 30.8354C40.2336 29.5277 40.0843 28.3769 39.7859 27.3831Z" fill="white"/>
<path d="M49.4387 40.12L49.702 36.3538C49.702 34.6626 49.4562 33.0585 48.9646 31.5415C49.4562 31.3323 50.062 31.2277 50.7818 31.2277C52.1864 31.2277 52.8886 32.0036 52.8886 33.5554C52.8886 34.2528 52.7921 35.2379 52.5989 36.5108C52.4058 37.7836 52.3093 38.6641 52.3093 39.1523C52.3093 39.6231 52.318 39.9718 52.3356 40.1985C52.3531 40.4077 52.397 40.6605 52.4673 40.9569C52.5726 41.5497 52.915 41.8462 53.4944 41.8462C54.0913 41.8462 54.7234 41.3841 55.3905 40.46C56.0752 39.5185 56.6195 38.481 57.0233 37.3477C57.4447 36.2144 57.6554 35.3164 57.6554 34.6538C57.5676 33.2764 57.4184 32.239 57.2077 31.5415C57.7695 31.3323 58.3401 31.2277 58.9195 31.2277C59.5164 31.2277 60.008 31.4108 60.3943 31.7769C60.7981 32.1431 61 32.6313 61 33.2415C61 42.7615 59.2443 48.4718 55.7329 50.3723C54.9428 50.7908 54.0474 51 53.0467 51C52.0459 51 51.168 50.7385 50.4131 50.2154C49.6757 49.6923 49.307 48.96 49.307 48.0185C49.307 47.3908 49.544 46.859 50.0181 46.4231C50.4921 46.0046 51.0539 45.7954 51.7035 45.7954C51.844 45.7954 52.0196 45.8128 52.2303 45.8477C52.1776 46.0744 52.1512 46.2749 52.1512 46.4492C52.1512 47.9836 52.6867 48.7508 53.7577 48.7508C54.4073 48.7508 54.9955 48.4021 55.5222 47.7046C56.0489 47.0072 56.4703 46.1528 56.7863 45.1415C57.4008 43.0841 57.7081 41.2185 57.7081 39.5446C57.1813 40.9569 56.4615 42.099 55.5485 42.9708C54.6531 43.8251 53.6787 44.2523 52.6253 44.2523C50.5009 44.2523 49.4387 42.8749 49.4387 40.12Z" fill="white"/>
<path d="M0 2.38523C4.71934 0.795077 9.60722 0 14.6637 0C19.7201 0 23.9127 1.06708 27.2415 3.20123C30.5703 5.33538 32.2348 8.59938 32.2348 12.9932C32.2348 17.3871 30.6559 22.4871 27.5378 25.5C24.4196 28.4711 19.8465 29.1306 17.2129 28.5966C14.5794 28.0627 11.9458 25.9812 11.9458 21.8437C11.9458 17.7061 15.143 15.6923 15.8013 15.6923C15.8013 16.3462 14.9899 19.2702 16.5545 20.7505C18.1192 22.2308 19.9602 22.2389 21.7269 20.9231C24.3604 18.9615 23.8916 16.8012 23.8916 13.9975C23.8916 11.152 23.091 9.03877 21.4898 7.65784C19.8886 6.27692 17.6554 5.58646 14.7901 5.58646C13.3153 5.58646 11.5245 5.83754 9.41761 6.33969C9.08051 11.4868 8.91196 16.048 8.91196 20.0234C8.91196 31.1545 9.3544 39.2098 10.2393 44.1895C8.89089 44.6917 7.45824 44.9428 5.94131 44.9428C4.42438 44.9428 3.09706 44.4615 1.95937 43.4991C0.863807 42.5366 0.316027 41.2603 0.316027 39.6702C0.316027 38.08 0.526711 35.3182 0.948081 31.3846C1.36945 27.4092 1.58013 24.2289 1.58013 21.8437C1.58013 14.5625 1.05342 8.07631 0 2.38523Z" fill="white"/>
</svg>
