<svg width="15" height="12" viewBox="0 0 15 12" fill="none" xmlns="http://www.w3.org/2000/svg">
<path d="M6.652 1.3568L0.956249 10.47C0.539969 11.136 1.01881 12 1.80425 12H4.83333C5.38562 12 5.83333 11.5523 5.83333 11V8.2C5.83333 7.64772 6.28105 7.2 6.83333 7.2H8.16667C8.71895 7.2 9.16667 7.64771 9.16667 8.2V11C9.16667 11.5523 9.61438 12 10.1667 12H13.1766C13.966 12 14.4442 11.1281 14.0198 10.4624L12.9068 8.71651C12.8044 8.55591 12.75 8.36941 12.75 8.17895V3.64531C12.75 3.19145 12.3821 2.82353 11.9282 2.82353H11.8556C11.504 2.82353 11.2018 3.07292 11.1351 3.41814L10.949 4.38162C10.8891 4.69185 10.48 4.76794 10.3125 4.5L9.375 3L8.348 1.3568C7.95633 0.730129 7.04367 0.73013 6.652 1.3568Z" fill="#C1C1C1"/>
</svg>
