<svg width="19" height="19" viewBox="0 0 19 19" fill="none" xmlns="http://www.w3.org/2000/svg">
<circle cx="9.5" cy="9.5" r="9.5" fill="#2A2A2A"/>
<path d="M8.66156 5.28991L4.00424 12.455C3.57183 13.1203 4.04925 14 4.84269 14H7.05556C7.60784 14 8.05556 13.5523 8.05556 13V11C8.05556 10.4477 8.50327 10 9.05556 10H9.94444C10.4967 10 10.9444 10.4477 10.9444 11V13C10.9444 13.5523 11.3922 14 11.9444 14H14.1372C14.9347 14 15.4113 13.1121 14.9706 12.4474L14.2165 11.31C14.1079 11.1462 14.05 10.954 14.05 10.7574V7.06759C14.05 6.6729 13.73 6.35294 13.3354 6.35294H13.2665C12.9661 6.35294 12.7074 6.56484 12.6483 6.85935L12.4906 7.64418C12.4369 7.91132 12.086 7.97847 11.9375 7.75L11.125 6.5L10.3384 5.28991C9.9441 4.68323 9.0559 4.68323 8.66156 5.28991Z" fill="#C1C1C1"/>
</svg>
