<svg width="19" height="19" viewBox="0 0 19 19" fill="none" xmlns="http://www.w3.org/2000/svg">
<circle cx="9.5" cy="9.5" r="9.5" fill="#2A2A2A"/>
<path d="M6 4.63687C7.31765 4.21229 8.68235 4 10.0941 4C11.5059 4 12.6765 4.28492 13.6059 4.85475C14.5353 5.42458 15 6.29609 15 7.46927C15 8.64246 14.5592 10.0042 13.6886 10.8087C12.818 11.602 11.5412 11.778 10.8059 11.6355C10.0706 11.4929 9.33529 10.9372 9.33529 9.8324C9.33529 8.72765 10.2279 8.18994 10.4118 8.18994C10.4118 8.36453 10.1852 9.14525 10.6221 9.5405C11.0589 9.93575 11.5729 9.93793 12.0662 9.58659C12.8015 9.06285 12.6706 8.48603 12.6706 7.73743C12.6706 6.97765 12.4471 6.41341 12 6.04469C11.5529 5.67598 10.9294 5.49162 10.1294 5.49162C9.71765 5.49162 9.21765 5.55866 8.62941 5.69274C8.53529 7.06704 8.48823 8.28492 8.48823 9.34637C8.48823 12.3184 8.61176 14.4693 8.85882 15.7989C8.48235 15.933 8.08235 16 7.65882 16C7.23529 16 6.86471 15.8715 6.54706 15.6145C6.24118 15.3575 6.08823 15.0168 6.08823 14.5922C6.08823 14.1676 6.14706 13.4302 6.26471 12.3799C6.38235 11.3184 6.44118 10.4693 6.44118 9.8324C6.44118 7.88827 6.29412 6.15642 6 4.63687Z" fill="#C1C1C1"/>
</svg>
