<svg width="17" height="17" viewBox="0 0 17 17" fill="none" xmlns="http://www.w3.org/2000/svg">
<path d="M17 8.5C17 13.1944 13.1944 17 8.5 17C3.80558 17 0 13.1944 0 8.5C0 3.80558 3.80558 0 8.5 0C13.1944 0 17 3.80558 17 8.5Z" fill="#2B2B2B"/>
<path d="M4.53333 2.92831C5.86074 2.48721 7.23555 2.26667 8.65778 2.26667C10.08 2.26667 11.2593 2.56266 12.1956 3.15466C13.1319 3.74665 13.6 4.65205 13.6 5.87086C13.6 7.08967 13.1559 8.50435 12.2789 9.34011C11.4018 10.1643 10.1156 10.3472 9.37481 10.1991C8.63407 10.051 7.89333 9.4736 7.89333 8.32588C7.89333 7.17817 8.79259 6.61955 8.97778 6.61955C8.97778 6.80092 8.74953 7.61201 9.18963 8.02263C9.62973 8.43326 10.1475 8.43552 10.6444 8.07052C11.3852 7.5264 11.2533 6.92716 11.2533 6.14944C11.2533 5.36012 11.0281 4.77393 10.5778 4.39087C10.1274 4.00782 9.49926 3.81629 8.69333 3.81629C8.27852 3.81629 7.77481 3.88594 7.18222 4.02523C7.08741 5.45298 7.04 6.71822 7.04 7.82095C7.04 10.9086 7.16444 13.1431 7.41333 14.5244C7.03407 14.6637 6.63111 14.7333 6.20444 14.7333C5.77778 14.7333 5.40444 14.5998 5.08444 14.3329C4.7763 14.0659 4.62222 13.7119 4.62222 13.2708C4.62222 12.8297 4.68148 12.0636 4.8 10.9724C4.91852 9.86971 4.97778 8.98752 4.97778 8.32588C4.97778 6.30614 4.82963 4.50695 4.53333 2.92831Z" fill="#C1C1C1"/>
</svg>
