<svg width="23" height="21" viewBox="0 0 23 21" fill="none" xmlns="http://www.w3.org/2000/svg">
<path fill-rule="evenodd" clip-rule="evenodd" d="M18.6592 12.0473C21.0565 10.2468 21.5403 6.84375 19.7398 4.44641C17.9392 2.04907 14.5362 1.56527 12.1389 3.36581C9.74152 5.16635 9.25772 8.5694 11.0583 10.9667C12.8588 13.3641 16.2619 13.8479 18.6592 12.0473ZM17.2417 10.16C18.5967 9.14235 18.8702 7.21889 17.8525 5.86387C16.8348 4.50886 14.9113 4.2354 13.5563 5.2531C12.2013 6.2708 11.9279 8.19426 12.9455 9.54928C13.9632 10.9043 15.8867 11.1777 17.2417 10.16Z" fill="#5C5C5C"/>
<rect x="2.79102" y="15.1094" width="11.4587" height="2.83237" rx="1.41619" transform="rotate(-36.9087 2.79102 15.1094)" fill="#5C5C5C"/>
<rect x="7.91675" y="18.9189" width="4.85708" height="4.75788" rx="1" transform="rotate(-126.909 7.91675 18.9189)" fill="#5C5C5C"/>
</svg>
