<svg width="57" height="57" viewBox="0 0 57 57" fill="none" xmlns="http://www.w3.org/2000/svg">
<circle cx="28.7192" cy="28.2192" r="25.7192" stroke="white" stroke-width="5"/>
<path d="M20 15.486C22.9281 14.4953 25.9608 14 29.098 14C32.2353 14 34.8366 14.6648 36.902 15.9944C38.9673 17.324 40 19.3575 40 22.095C40 24.8324 39.0204 28.0098 37.0858 29.8869C35.1511 31.7379 32.3137 32.1488 30.6797 31.8161C29.0458 31.4835 27.4118 30.1867 27.4118 27.6089C27.4118 25.0312 29.3954 23.7765 29.8039 23.7765C29.8039 24.1839 29.3004 26.0056 30.2712 26.9278C31.242 27.8501 32.3843 27.8552 33.4804 27.0354C35.1144 25.8133 34.8235 24.4674 34.8235 22.7207C34.8235 20.9479 34.3268 19.6313 33.3333 18.7709C32.3399 17.9106 30.9543 17.4804 29.1765 17.4804C28.2614 17.4804 27.1503 17.6369 25.8431 17.9497C25.634 21.1564 25.5294 23.9981 25.5294 26.4749C25.5294 33.4097 25.8039 38.4283 26.3529 41.5307C25.5163 41.8436 24.6275 42 23.6863 42C22.7451 42 21.9216 41.7002 21.2157 41.1006C20.5359 40.5009 20.1961 39.7058 20.1961 38.7151C20.1961 37.7244 20.3268 36.0037 20.5882 33.5531C20.8497 31.0763 20.9804 29.095 20.9804 27.6089C20.9804 23.0726 20.6536 19.0317 20 15.486Z" fill="white"/>
</svg>
